Coordinates
version=1
nRows=24
nColumns=38
inDegrees=no

Units are S.I. units (second, meters, Newtons, ...)
If the header above contains a line with 'inDegrees', this indicates whether rotational values are in degrees (yes) or radians (no).

endheader
time	pelvis_tilt	pelvis_list	pelvis_rotation	pelvis_tx	pelvis_ty	pelvis_tz	hip_flexion_r	hip_adduction_r	hip_rotation_r	knee_angle_r	ankle_angle_r	subtalar_angle_r	mtp_angle_r	hip_flexion_l	hip_adduction_l	hip_rotation_l	knee_angle_l	ankle_angle_l	subtalar_angle_l	mtp_angle_l	lumbar_extension	lumbar_bending	lumbar_rotation	arm_flex_r	arm_add_r	arm_rot_r	elbow_flex_r	pro_sup_r	wrist_flex_r	wrist_dev_r	arm_flex_l	arm_add_l	arm_rot_l	elbow_flex_l	pro_sup_l	wrist_flex_l	wrist_dev_l
0.62	0.673964	1.27326	1.13774	0.93189	0.262691	1.01618	0.479317	0.132373	-0.169388	0.36182	-0.103418	0	0	0.45641	-0.156865	0.139577	1.23305	-0.248551	0	0	0.101936	0.161246	-0.0955103	-0.141832	-0.283064	0.453657	0.378973	1.22297	0	0	-0.197575	-0.217674	-0.286498	0.485155	0.841944	0	0
0.63	0.664397	1.27762	1.14376	0.931731	0.275053	1.01836	0.459975	0.132444	-0.172161	0.353893	-0.104452	0	0	0.472817	-0.153497	0.128804	1.24287	-0.230407	0	0	0.0958911	0.158318	-0.0814672	-0.155232	-0.271633	0.307478	0.397257	1.35488	0	0	-0.188329	-0.210044	-0.319438	0.480429	0.882569	0	0
0.64	0.654466	1.28241	1.14924	0.931608	0.287507	1.02062	0.440179	0.132549	-0.17535	0.34669	-0.104905	0	0	0.488718	-0.15472	0.109733	1.24689	-0.221182	0	0	0.0949809	0.15393	-0.075682	-0.155371	-0.277345	0.287437	0.41291	1.35428	0	0	-0.190556	-0.209918	-0.321517	0.480003	0.88301	0	0
0.65	0.639217	1.28683	1.1604	0.93137	0.299747	1.02295	0.421258	0.131034	-0.176987	0.339805	-0.105827	0	0	0.502613	-0.148687	0.101969	1.24347	-0.211577	0	0	0.0956116	0.147946	-0.0699859	-0.155904	-0.28268	0.268928	0.428873	1.35111	0	0	-0.192354	-0.209855	-0.323908	0.478023	0.883751	0	0
0.66	0.634719	1.295	1.15803	0.931384	0.312338	1.02558	0.396181	0.13203	-0.176242	0.331121	-0.107896	0	0	0.51253	-0.15868	0.0680536	1.23655	-0.205786	0	0	0.0900685	0.143504	-0.0610634	-0.158142	-0.2889	0.249299	0.450133	1.34457	0	0	-0.195117	-0.209581	-0.327126	0.478743	0.884593	0	0
0.67	0.617829	1.29995	1.16996	0.931065	0.324376	1.02801	0.376668	0.129333	-0.175226	0.323915	-0.110299	0	0	0.523293	-0.150872	0.0627313	1.22145	-0.198992	0	0	0.0895463	0.136911	-0.0556513	-0.157945	-0.29483	0.236142	0.467707	1.33701	0	0	-0.198191	-0.209438	-0.32966	0.477589	0.884863	0	0
0.68	0.627399	1.31396	1.15039	0.931227	0.337148	1.03122	0.342919	0.132166	-0.17354	0.312531	-0.115157	0	0	0.524665	-0.179274	-0.00409314	1.2074	-0.203309	0	0	0.0747451	0.134005	-0.0437219	-0.158907	-0.302905	0.224754	0.491888	1.3238	0	0	-0.200656	-0.209153	-0.331101	0.479618	0.884902	0	0
0.69	0.612832	1.32112	1.15642	0.931041	0.349412	1.03381	0.319939	0.129994	-0.171411	0.303622	-0.119445	0	0	0.531028	-0.185156	-0.0370433	1.18582	-0.199893	0	0	0.0716255	0.12762	-0.035356	-0.158366	-0.31032	0.219615	0.510722	1.30807	0	0	-0.20354	-0.208952	-0.331382	0.477695	0.88291	0	0
0.7	0.594471	1.32699	1.16608	0.93081	0.361586	1.03617	0.298936	0.127095	-0.170236	0.295592	-0.123098	0	0	0.537759	-0.189274	-0.0675324	1.16054	-0.195282	0	0	0.0707722	0.120791	-0.0283668	-0.156155	-0.318369	0.221456	0.527828	1.28906	0	0	-0.208511	-0.20919	-0.329318	0.477499	0.878687	0	0
0.71	0.579661	1.33401	1.17078	0.930591	0.373569	1.03849	0.27684	0.124537	-0.169971	0.287796	-0.129224	0	0	0.54132	-0.19359	-0.0975238	1.13137	-0.187485	0	0	0.0617218	0.116063	-0.00788453	-0.170198	-0.309861	0.135612	0.557168	1.35605	0	0	-0.199658	-0.203156	-0.351159	0.472476	0.912293	0	0
0.72	0.558355	1.33824	1.18219	0.930333	0.385445	1.04046	0.258606	0.121029	-0.169557	0.280627	-0.133692	0	0	0.547141	-0.195867	-0.123476	1.09851	-0.182921	0	0	0.06047	0.110259	0.00250154	-0.171742	-0.315342	0.124381	0.578397	1.34981	0	0	-0.202061	-0.202154	-0.350576	0.472554	0.912178	0	0
0.73	0.536471	1.34211	1.19393	0.930074	0.397218	1.04228	0.240541	0.117576	-0.167768	0.272462	-0.138977	0	0	0.551943	-0.1973	-0.147108	1.06198	-0.179407	0	0	0.0593245	0.104604	0.0140498	-0.174188	-0.320618	0.112141	0.600801	1.34103	0	0	-0.20303	-0.200265	-0.351455	0.472368	0.908013	0	0
0.74	0.512876	1.34603	1.20722	0.929844	0.408976	1.04395	0.222643	0.113795	-0.166115	0.264326	-0.143884	0	0	0.55523	-0.197874	-0.17018	1.02166	-0.177558	0	0	0.0582381	0.0981381	0.0257215	-0.17595	-0.325327	0.101916	0.622064	1.33142	0	0	-0.203581	-0.197822	-0.355063	0.472902	0.900031	0	0
0.75	0.488782	1.34987	1.22052	0.929628	0.420698	1.04547	0.205347	0.109912	-0.163645	0.2579	-0.147984	0	0	0.55666	-0.198335	-0.194761	0.977328	-0.17834	0	0	0.057008	0.0915795	0.0383395	-0.177686	-0.33028	0.0938784	0.642955	1.32115	0	0	-0.203275	-0.195703	-0.358361	0.47337	0.893108	0	0
0.76	0.463267	1.3521	1.2348	0.929344	0.432369	1.04669	0.189942	0.106095	-0.160106	0.251663	-0.151252	0	0	0.55803	-0.198639	-0.219962	0.929291	-0.180773	0	0	0.0580146	0.0858541	0.0501706	-0.178914	-0.33621	0.0893858	0.663084	1.31217	0	0	-0.203338	-0.19402	-0.359642	0.472831	0.88972	0	0
0.77	0.436504	1.35228	1.25132	0.929031	0.443998	1.04754	0.177003	0.102327	-0.157538	0.246259	-0.152251	0	0	0.560545	-0.19774	-0.242784	0.878074	-0.181872	0	0	0.0631654	0.0804607	0.0559301	-0.175977	-0.341712	0.0907982	0.678264	1.31347	0	0	-0.207387	-0.191685	-0.36728	0.47327	0.896328	0	0
0.78	0.418835	1.35574	1.25942	0.928736	0.45554	1.04846	0.1595	0.0993845	-0.155848	0.239407	-0.156042	0	0	0.557879	-0.197248	-0.265768	0.823683	-0.189981	0	0	0.0612028	0.0765723	0.0659216	-0.177336	-0.351289	0.0941759	0.702459	1.29184	0	0	-0.207137	-0.195034	-0.349391	0.471534	0.889543	0	0
0.79	0.405603	1.35887	1.26389	0.92837	0.467005	1.04912	0.142088	0.0972635	-0.154872	0.232593	-0.160121	0	0	0.554129	-0.196812	-0.288393	0.766046	-0.2036	0	0	0.056357	0.0736142	0.0813056	-0.187209	-0.342924	0.0409707	0.72849	1.34657	0	0	-0.195034	-0.185019	-0.39727	0.46357	0.953461	0	0
0.8	0.39102	1.35931	1.27099	0.927819	0.478528	1.04925	0.127852	0.0949889	-0.155424	0.226625	-0.162585	0	0	0.551774	-0.194397	-0.30793	0.704339	-0.215531	0	0	0.0581547	0.071429	0.0882093	-0.189039	-0.348417	0.0362767	0.749798	1.35023	0	0	-0.194279	-0.185827	-0.395268	0.460203	0.958248	0	0
0.81	0.376907	1.35822	1.27918	0.927075	0.49008	1.049	0.115157	0.0927123	-0.157527	0.220898	-0.164062	0	0	0.550275	-0.189737	-0.32293	0.640232	-0.227314	0	0	0.0621663	0.0698226	0.0927867	-0.190454	-0.354186	0.0332066	0.7697	1.3535	0	0	-0.194643	-0.187099	-0.392714	0.457319	0.960441	0	0
0.82	0.363547	1.35602	1.28691	0.926272	0.501525	1.04838	0.103967	0.0905425	-0.159051	0.216225	-0.164572	0	0	0.549261	-0.183462	-0.33333	0.574413	-0.238778	0	0	0.0670933	0.0686921	0.096891	-0.191337	-0.36052	0.0320198	0.788464	1.35624	0	0	-0.195342	-0.18887	-0.389097	0.455326	0.96041	0	0
0.83	0.351611	1.35343	1.29271	0.925446	0.512817	1.04747	0.0933698	0.0885114	-0.157225	0.212231	-0.164078	0	0	0.54721	-0.175802	-0.338201	0.505493	-0.250079	0	0	0.0715905	0.0680646	0.101555	-0.191587	-0.367851	0.0330592	0.806556	1.35722	0	0	-0.196005	-0.190868	-0.384265	0.454769	0.956886	0	0
0.84	0.343779	1.34981	1.29547	0.924483	0.524168	1.04622	0.0831745	0.0873901	-0.153296	0.207741	-0.163604	0	0	0.544947	-0.166932	-0.335179	0.434279	-0.254931	0	0	0.0774733	0.068338	0.104166	-0.190822	-0.374856	0.0355312	0.822308	1.35857	0	0	-0.197573	-0.190383	-0.390677	0.456556	0.957136	0	0
0.85	0.338756	1.34547	1.29707	0.923383	0.535549	1.04466	0.0735078	0.0870177	-0.149532	0.203315	-0.163	0	0	0.541978	-0.15612	-0.320726	0.360158	-0.266627	0	0	0.0842382	0.0696582	0.105654	-0.190561	-0.384696	0.0430891	0.839218	1.34406	0	0	-0.199789	-0.194563	-0.374503	0.457657	0.935566	0	0
